<?xml version="1.0" encoding="utf-8"?>
<!-- Generator: Adobe Illustrator 12.0.0, SVG Export Plug-In . SVG Version: 6.00 Build 51448)  -->
<!DOCTYPE svg PUBLIC "-//W3C//DTD SVG 1.1//EN" "http://www.w3.org/Graphics/SVG/1.1/DTD/svg11.dtd" [
	<!ENTITY ns_svg "http://www.w3.org/2000/svg">
	<!ENTITY ns_xlink "http://www.w3.org/1999/xlink">
]>
<svg  version="1.1" id="Calque_1" xmlns="&ns_svg;" xmlns:xlink="&ns_xlink;" width="74.96" height="74.96"
	 viewBox="0 0 74.96 74.96" overflow="visible" enable-background="new 0 0 74.96 74.96" xml:space="preserve">
<path fill="#E63D4B" d="M63.28,64.666c7.194-6.83,11.681-16.483,11.681-27.186C74.96,16.78,58.18,0,37.48,0
	C16.781,0,0,16.78,0,37.48s16.781,37.48,37.48,37.48c6.348,0,12.326-1.58,17.566-4.365l13.768,3.753L63.28,64.666z"/>
<g>
	<path fill="#FFFFFF" d="M19.305,46.218L18.08,42.64h-7.024L9.83,46.218H6.955l6.525-17.797h2.175l6.525,17.797H19.305z
		 M14.63,32.443l-2.775,7.9h5.475L14.63,32.443z"/>
	<path fill="#FFFFFF" d="M35.767,43.252c-0.375,0.684-0.842,1.258-1.4,1.724s-1.192,0.815-1.9,1.049
		c-0.708,0.233-1.463,0.35-2.263,0.35c-0.933,0-1.792-0.163-2.575-0.487c-0.784-0.326-1.484-0.797-2.101-1.414
		c-0.434-0.434-0.768-0.892-1.001-1.375c-0.234-0.483-0.405-1.009-0.514-1.576c-0.108-0.566-0.171-1.196-0.188-1.889
		c-0.017-0.691-0.025-1.463-0.025-2.313s0.008-1.622,0.025-2.313c0.017-0.692,0.079-1.322,0.188-1.889s0.28-1.092,0.514-1.576
		c0.233-0.483,0.567-0.942,1.001-1.375c0.617-0.617,1.317-1.088,2.101-1.413c0.783-0.325,1.642-0.488,2.575-0.488
		c1.65,0,3.042,0.466,4.175,1.398c1.133,0.933,1.858,2.29,2.175,4.073h-2.75c-0.217-0.9-0.621-1.633-1.213-2.2
		s-1.388-0.85-2.388-0.85c-0.533,0-1.025,0.096-1.475,0.288c-0.45,0.191-0.833,0.455-1.15,0.788
		c-0.217,0.234-0.396,0.488-0.537,0.764s-0.25,0.617-0.325,1.026c-0.075,0.408-0.129,0.913-0.162,1.514
		c-0.034,0.601-0.05,1.352-0.05,2.253c0,0.901,0.017,1.652,0.05,2.253c0.033,0.601,0.087,1.105,0.162,1.514
		c0.075,0.409,0.184,0.751,0.325,1.026s0.32,0.53,0.537,0.764c0.317,0.334,0.7,0.597,1.15,0.788c0.45,0.192,0.941,0.288,1.475,0.288
		c1,0,1.8-0.283,2.4-0.851c0.6-0.566,1.008-1.3,1.225-2.199h2.726C36.405,41.785,36.142,42.568,35.767,43.252z"/>
	<path fill="#FFFFFF" d="M45.689,30.843v15.375h-2.703V30.843h-4.899v-2.422h12.503v2.422H45.689z"/>
	<path fill="#FFFFFF" d="M65.669,42.736c-0.324,0.758-0.775,1.404-1.351,1.938s-1.255,0.95-2.038,1.25s-1.626,0.45-2.526,0.45
		s-1.742-0.15-2.526-0.45c-0.783-0.3-1.459-0.717-2.025-1.25c-0.567-0.533-1.014-1.18-1.338-1.938
		c-0.326-0.759-0.488-1.597-0.488-2.514V28.421h2.703v11.68c0,1.2,0.333,2.143,1,2.826c0.666,0.684,1.559,1.025,2.675,1.025
		c1.117,0,2.013-0.342,2.688-1.025s1.013-1.626,1.013-2.826v-11.68h2.703v11.802C66.158,41.14,65.996,41.978,65.669,42.736z"/>
</g>
</svg>
