<?xml version="1.0" encoding="utf-8"?>
<!-- Generator: Adobe Illustrator 12.0.0, SVG Export Plug-In . SVG Version: 6.00 Build 51448)  -->
<!DOCTYPE svg PUBLIC "-//W3C//DTD SVG 1.1//EN" "http://www.w3.org/Graphics/SVG/1.1/DTD/svg11.dtd" [
	<!ENTITY ns_svg "http://www.w3.org/2000/svg">
	<!ENTITY ns_xlink "http://www.w3.org/1999/xlink">
]>
<svg  version="1.1" id="Calque_1" xmlns="&ns_svg;" xmlns:xlink="&ns_xlink;" width="64" height="64" viewBox="0 0 64 64"
	 overflow="visible" enable-background="new 0 0 64 64" xml:space="preserve">
<circle fill="#3AAADC" cx="32" cy="32" r="32"/>
<path fill="#FFFFFF" d="M44.633,37.745c-0.484-0.482-1.154-0.746-1.891-0.746c-0.773,0-1.522,0.301-2.049,0.832l-3.345,3.351
	l-0.902-0.501c-1.982-1.105-4.707-2.62-7.58-5.504c-2.884-2.89-4.396-5.626-5.5-7.625l-0.493-0.882l3.348-3.354
	c1.105-1.112,1.143-2.885,0.083-3.952l-6.185-6.197c-0.48-0.481-1.149-0.751-1.887-0.751c-0.773,0-1.518,0.307-2.048,0.838
	l-1.52,1.528l-0.141,0.237c-0.566,0.725-1.026,1.543-1.374,2.433c-0.322,0.85-0.521,1.655-0.612,2.464
	c-0.8,6.641,2.255,12.738,10.542,21.048c9.823,9.849,18.031,10.618,20.315,10.618c0.389,0,0.625-0.025,0.692-0.031
	c0.844-0.102,1.651-0.306,2.462-0.619c0.878-0.347,1.693-0.806,2.417-1.371l0.344-0.274l1.42-1.399
	c1.104-1.107,1.142-2.876,0.078-3.943L44.633,37.745z"/>
</svg>
