<?xml version="1.0" encoding="utf-8"?>
<!-- Generator: Adobe Illustrator 12.0.0, SVG Export Plug-In . SVG Version: 6.00 Build 51448)  -->
<!DOCTYPE svg PUBLIC "-//W3C//DTD SVG 1.1//EN" "http://www.w3.org/Graphics/SVG/1.1/DTD/svg11.dtd" [
	<!ENTITY ns_svg "http://www.w3.org/2000/svg">
	<!ENTITY ns_xlink "http://www.w3.org/1999/xlink">
]>
<svg  version="1.1" id="Calque_1" xmlns="&ns_svg;" xmlns:xlink="&ns_xlink;" width="75" height="75" viewBox="0 0 75 75"
	 overflow="visible" enable-background="new 0 0 75 75" xml:space="preserve">
<circle fill="#004E87" cx="37.5" cy="37.5" r="37.5"/>
<g>
	<path fill="#FFFFFF" d="M51.671,29.692c0-8.515-9.417-15.423-21.048-15.423c-11.651,0-21.069,6.908-21.069,15.423
		c0,5.247,3.595,9.85,9.043,12.65l-5.226,9.931l11.339-7.835c1.886,0.411,3.854,0.693,5.913,0.693
		C42.254,45.131,51.671,38.22,51.671,29.692 M24.006,31.369h-4.45v-4.454h4.45V31.369z M37.499,26.915h4.454v4.454h-4.454V26.915z
		 M28.528,26.915h4.44v4.454h-4.44V26.915z"/>
	<path fill="#FFFFFF" d="M65.446,39.4c0-5.598-4.311-10.446-10.623-12.893c0.302,1.146,0.48,2.342,0.48,3.571
		c0,10.095-11.164,18.284-24.938,18.284c-0.174,0-0.327-0.035-0.504-0.035c3.643,3.433,9.314,5.646,15.697,5.646
		c1.954,0,3.794-0.27,5.573-0.645l10.716,7.403l-4.941-9.382C62.062,48.701,65.446,44.356,65.446,39.4"/>
</g>
</svg>
