<?xml version="1.0" encoding="utf-8"?>
<!-- Generator: Adobe Illustrator 12.0.0, SVG Export Plug-In . SVG Version: 6.00 Build 51448)  -->
<!DOCTYPE svg PUBLIC "-//W3C//DTD SVG 1.1//EN" "http://www.w3.org/Graphics/SVG/1.1/DTD/svg11.dtd" [
	<!ENTITY ns_svg "http://www.w3.org/2000/svg">
	<!ENTITY ns_xlink "http://www.w3.org/1999/xlink">
]>
<svg  version="1.1" id="Calque_1" xmlns="&ns_svg;" xmlns:xlink="&ns_xlink;" width="94.527" height="94.527"
	 viewBox="0 0 94.527 94.527" overflow="visible" enable-background="new 0 0 94.527 94.527" xml:space="preserve">
<circle fill="#35A8E0" cx="47.263" cy="47.264" r="47.263"/>
<g>
	<g>
		<path fill="#C7C7C7" d="M67.238,19.808H27.289c-2.902,0-5.257,2.354-5.257,5.257v8.564h50.463v-8.564
			C72.496,22.161,70.142,19.808,67.238,19.808z M33.605,29.358c-1.535,0-2.78-1.244-2.78-2.779c0-1.536,1.245-2.781,2.78-2.781
			s2.779,1.245,2.779,2.781C36.385,28.114,35.14,29.358,33.605,29.358z M47.228,29.358c-1.535,0-2.779-1.244-2.779-2.779
			c0-1.536,1.244-2.781,2.779-2.781c1.536,0,2.779,1.245,2.779,2.781C50.007,28.114,48.763,29.358,47.228,29.358z M60.851,29.358
			c-1.535,0-2.781-1.244-2.781-2.779c0-1.536,1.246-2.781,2.781-2.781s2.778,1.245,2.778,2.781
			C63.63,28.114,62.386,29.358,60.851,29.358z"/>
	</g>
	<g>
		<path fill="#FFFFFF" d="M33.605,22.588c-2.204,0-3.99,1.786-3.99,3.991c0,2.203,1.786,3.99,3.99,3.99s3.991-1.787,3.991-3.99
			C37.596,24.374,35.809,22.588,33.605,22.588z M33.605,29.331c-1.521,0-2.752-1.231-2.752-2.752s1.231-2.753,2.752-2.753
			c1.52,0,2.752,1.232,2.752,2.753S35.125,29.331,33.605,29.331z"/>
	</g>
	<path fill="#FFFFFF" d="M35.374,24.241c0,0.939-0.761,1.701-1.7,1.701l0,0c-0.938,0-1.699-0.762-1.699-1.701v-6.119
		c0-0.938,0.761-1.701,1.699-1.701l0,0c0.939,0,1.7,0.763,1.7,1.701V24.241z"/>
	<g>
		<path fill="#FFFFFF" d="M47.228,22.588c-2.204,0-3.99,1.786-3.99,3.991c0,2.203,1.786,3.99,3.99,3.99s3.99-1.787,3.99-3.99
			C51.218,24.374,49.431,22.588,47.228,22.588z M47.228,29.331c-1.521,0-2.752-1.231-2.752-2.752s1.231-2.753,2.752-2.753
			c1.52,0,2.752,1.232,2.752,2.753S48.748,29.331,47.228,29.331z"/>
	</g>
	<path fill="#FFFFFF" d="M48.998,24.241c0,0.939-0.762,1.701-1.701,1.701l0,0c-0.938,0-1.699-0.762-1.699-1.701v-6.119
		c0-0.938,0.761-1.701,1.699-1.701l0,0c0.939,0,1.701,0.763,1.701,1.701V24.241z"/>
	<g>
		<path fill="#FFFFFF" d="M60.851,22.588c-2.205,0-3.99,1.786-3.99,3.991c0,2.203,1.785,3.99,3.99,3.99
			c2.203,0,3.989-1.787,3.989-3.99C64.841,24.374,63.054,22.588,60.851,22.588z M60.851,29.331c-1.521,0-2.752-1.231-2.752-2.752
			s1.231-2.753,2.752-2.753c1.52,0,2.752,1.232,2.752,2.753S62.371,29.331,60.851,29.331z"/>
	</g>
	<path fill="#FFFFFF" d="M62.619,24.241c0,0.939-0.76,1.701-1.699,1.701l0,0c-0.938,0-1.701-0.762-1.701-1.701v-6.119
		c0-0.938,0.763-1.701,1.701-1.701l0,0c0.939,0,1.699,0.763,1.699,1.701V24.241z"/>
	<path fill="#FFFFFF" d="M22.032,33.694v39.154c0,2.902,2.354,5.257,5.257,5.257h39.949c2.904,0,5.258-2.354,5.258-5.257V33.694
		H22.032z"/>
	<rect x="30.483" y="39.99" fill="#C7C7C7" width="5.99" height="5.99"/>
	<rect x="39.695" y="39.99" fill="#C7C7C7" width="5.99" height="5.99"/>
	<rect x="48.908" y="39.99" fill="#C7C7C7" width="5.99" height="5.99"/>
	<rect x="58.119" y="39.99" fill="#C7C7C7" width="5.99" height="5.99"/>
	<rect x="30.483" y="48.957" fill="#C7C7C7" width="5.99" height="5.99"/>
	<rect x="39.695" y="48.957" fill="#C7C7C7" width="5.99" height="5.99"/>
	<rect x="48.908" y="48.957" fill="#E63D4B" width="5.99" height="5.99"/>
	<rect x="58.119" y="48.957" fill="#C7C7C7" width="5.99" height="5.99"/>
	<rect x="30.483" y="57.924" fill="#E63D4B" width="5.99" height="5.991"/>
	<rect x="39.695" y="57.924" fill="#C7C7C7" width="5.99" height="5.991"/>
	<rect x="48.908" y="57.924" fill="#C7C7C7" width="5.99" height="5.991"/>
	<rect x="58.119" y="57.924" fill="#C7C7C7" width="5.99" height="5.991"/>
	<rect x="30.483" y="66.891" fill="#C7C7C7" width="5.99" height="5.99"/>
	<rect x="39.695" y="66.891" fill="#C7C7C7" width="5.99" height="5.99"/>
	<rect x="48.908" y="66.891" fill="#C7C7C7" width="5.99" height="5.99"/>
	<rect x="58.119" y="66.891" fill="#C7C7C7" width="5.99" height="5.99"/>
</g>
</svg>
