<?xml version="1.0" encoding="utf-8"?>
<!-- Generator: Adobe Illustrator 12.0.0, SVG Export Plug-In . SVG Version: 6.00 Build 51448)  -->
<!DOCTYPE svg PUBLIC "-//W3C//DTD SVG 1.1//EN" "http://www.w3.org/Graphics/SVG/1.1/DTD/svg11.dtd" [
	<!ENTITY ns_svg "http://www.w3.org/2000/svg">
	<!ENTITY ns_xlink "http://www.w3.org/1999/xlink">
]>
<svg  version="1.1" id="Calque_1" xmlns="&ns_svg;" xmlns:xlink="&ns_xlink;" width="200" height="245.914"
	 viewBox="-1.639 -44.765 200 245.914" overflow="visible" enable-background="new -1.639 -44.765 200 245.914"
	 xml:space="preserve">
<path fill="#35A8E0" d="M26.334,24.147c5.563-4.958,8.453-1.257,8.097,3.557c-0.125,1.488-0.826,6.625-5.478,11.344
	c6.651-6.862,6.96-17.302,1.915-17.227c-1.943,0.055-3.725,1.618-4.591,2.342L26.334,24.147z"/>
<path fill="#35A8E0" d="M14.265,22.99c1.713-2.397,2.936-3.035,3.17-1.709c0.713,3.881-6.117,17.248-8.235,16.041
	c-0.493-0.281-0.372-1.352-0.34-1.982C9.601,30.85,12.564,25.398,14.265,22.99"/>
<path fill="#35A8E0" d="M26.269,24.164c5.79-5.083,8.458-1.095,8.105,3.587c-0.117,1.492-0.834,6.607-5.449,11.322l-0.036,0.028
	c-3.968,3.533-7.162,3.142-8.102-0.996C20.22,33.603,22.357,28.156,26.269,24.164"/>
<path fill="#35A8E0" d="M91.667,130.264c7.931-6.193,21.749,1.668,19.947,11.369c-0.396,2.211-1.595,3.522-2.315,4.316
	c6.761-7.604-2.065-18.301-11.782-17.726c-3.732,0.21-5.708,1.927-6.672,2.753C91.079,130.783,91.403,130.459,91.667,130.264"/>
<path fill="#35A8E0" d="M77.367,145.212c6.498-4.511,19.17,3.093,17.826,10.704c-0.936,5.328-8.924,7.118-16.162,1.648
	C72.796,152.079,74.715,147.083,77.367,145.212"/>
<path fill="#35A8E0" d="M65.808,156.444c5.579-3.328,17.13,4.412,15.256,10.259c-1.126,3.498-7.515,3.927-13.349-0.526
	C62.609,161.739,63.532,157.828,65.808,156.444"/>
<path fill="#35A8E0" d="M56.743,164.395c4.376-2.098,14.154,4.688,12.781,8.85c-0.821,2.462-5.959,2.203-10.817-1.538
	C54.229,167.861,55.136,165.188,56.743,164.395"/>
<path fill="#35A8E0" d="M49.585,169.625c3.502-1.068,11.879,5.19,10.207,7.652c-0.818,1.223-4.575,0.429-8.313-2.502
	C47.881,171.739,48.423,170.014,49.585,169.625"/>
<path fill="#35A8E0" d="M44.698,172.306c2.413-0.187,9.008,4.858,7.879,6.057c-0.519,0.591-3.19-0.438-6.175-2.786
	C43.823,173.423,43.727,172.354,44.698,172.306"/>
<path fill="#35A8E0" d="M41.487,172.889c1.701,0.566,6.535,4.396,5.903,4.664c-0.279,0.081-1.741-0.782-4.36-2.899
	c-1.304-1.044-1.83-1.57-1.83-1.781C41.24,172.824,41.249,172.804,41.487,172.889"/>
<path fill="#35A8E0" d="M71.233,109.698c7.259-5.547,19.134,2.372,17.919,11.967c-0.372,2.892-1.717,4.35-2.591,5.32
	c7.004-7.854-1.628-19.984-10.754-19.053c-2.882,0.332-4.36,1.611-5.352,2.494C70.675,110.192,70.974,109.883,71.233,109.698"/>
<path fill="#35A8E0" d="M57.225,125.083c5.717-4.453,16.292,3.023,15.701,11.102c-0.445,6.251-8.094,8.429-14.6,2.162
	C53.151,132.613,54.561,127.131,57.225,125.083"/>
<path fill="#35A8E0" d="M46.593,137.415c4.494-3.539,14.065,4.105,13.328,10.6c-0.551,4.461-6.227,5.36-11.604,0.162
	C43.896,143.309,44.649,138.945,46.593,137.415"/>
<path fill="#35A8E0" d="M38.957,146.888c3.486-2.761,11.907,4.64,11.005,9.644c-0.519,2.916-4.6,3.058-8.907-1.141
	C37.127,151.116,37.686,147.893,38.957,146.888"/>
<path fill="#35A8E0" d="M33.751,154.135c2.255-1.789,9.021,4.341,8.736,7.919c-0.153,2.033-3.085,1.766-6.494-1.57
	C32.819,157.067,32.929,154.767,33.751,154.135"/>
<path fill="#35A8E0" d="M30.921,158.888c1.3-1.053,6.936,4.405,6.721,6.511c-0.117,1.077-1.947,0.494-4.466-2.041
	C30.689,160.743,30.455,159.269,30.921,158.888"/>
<path fill="#35A8E0" d="M29.917,161.666c0.538-0.429,5.016,4.146,4.951,5.053c-0.024,0.292-0.798-0.04-2.81-2.138
	C29.742,162.176,29.84,161.739,29.917,161.666"/>
<path fill="#35A8E0" d="M31.265,163.917c0,0,0.818,0.874,1.644,1.691l-1.74-1.789C31.2,163.86,31.216,163.869,31.265,163.917"/>
<path fill="#35A8E0" d="M40.087,103.511c5.04-4.438,13.502,2.356,13.283,10.712c-0.227,7.354-7.259,9.563-12.368,3.896
	c-0.198-0.235-0.413-0.53-0.628-0.753C36.131,111.358,37.642,105.657,40.087,103.511"/>
<path fill="#35A8E0" d="M30.261,116.993c3.652-3.773,11.158,3.191,10.988,10.179c-0.073,5.215-4.604,6.583-8.664,2.591
	c-0.341-0.332-0.737-0.834-1.045-1.223C27.876,123.43,28.58,118.709,30.261,116.993"/>
<path fill="#35A8E0" d="M23.84,128.086c2.243-2.866,8.093,2.453,8.931,8.162c0.6,4.09-2.036,5.684-5.206,3.158
	c-0.79-0.632-1.287-1.247-1.79-1.847C22.674,133.285,22.746,129.447,23.84,128.086"/>
<path fill="#35A8E0" d="M20.22,137.463c1.142-2.105,5.337,1.773,6.692,6.186c0.924,2.899-0.02,4.471-2.032,3.336
	c-1.061-0.582-1.931-1.668-2.319-2.193C19.929,141.212,19.73,138.37,20.22,137.463"/>
<path fill="#35A8E0" d="M19.151,144.435c0.243-1.126,2.178,0.356,3.846,2.964c1.531,2.494,2.073,4.817,1.069,4.68
	c-0.405-0.032-1.117-0.438-2.405-2.072C19.767,147.479,18.973,145.269,19.151,144.435"/>
<path fill="#35A8E0" d="M20.006,149.601c-0.053-0.235,0.008-0.308,0.214-0.179c1.069,0.632,4.154,5.248,3.847,5.766
	c-0.179,0.024-0.628-0.461-1.555-1.652C20.855,151.342,20.115,150.054,20.006,149.601"/>
<path fill="#35A8E0" d="M40.378,65.391c6.239-4.834,13.907,1.577,12.818,10.703c-0.474,4.129-2.53,6.316-3.396,7.271
	c7.129-7.721,2.344-20.067-5.438-19.529c-2.368,0.166-3.77,1.413-4.733,2.239C39.84,65.854,40.155,65.598,40.378,65.391"/>
<path fill="#35A8E0" d="M26.625,81.56c4.405-4.401,10.838,1.417,10.615,9.53c-0.202,7.207-5.555,10.705-9.878,6.47
	c-0.688-0.648-1.134-1.385-1.522-1.959C22.661,89.608,24.37,83.786,26.625,81.56"/>
<path fill="#35A8E0" d="M17.366,96.126c2.651-3.539,7.603,0.85,8.408,7.489c0.688,5.773-2.299,9.441-5.708,6.988
	c-1.061-0.74-1.741-1.821-2.13-2.469C15.155,103.049,15.921,98.062,17.366,96.126"/>
<path fill="#35A8E0" d="M11.876,108.896c1.291-2.656,4.36-0.445,5.979,4.275c1.753,5.134,0.62,9.659-2.13,8.38
	c-1.142-0.55-1.963-1.887-2.38-2.542C10.985,114.75,11.095,110.507,11.876,108.896"/>
<path fill="#35A8E0" d="M9.499,120.37c0.332-1.539,1.522-1.174,2.851,0.858c2.353,3.651,3.247,9.725,1.385,9.434
	c-0.899-0.13-1.781-1.587-2.118-2.146C9.697,125.083,9.216,121.706,9.499,120.37"/>
<path fill="#35A8E0" d="M9.782,129.657c-0.072-0.744,0.179-0.987,0.64-0.582c1.685,1.425,4.353,8.478,3.32,8.672
	c-0.421,0.105-1.178-1.174-1.457-1.652C10.823,133.487,9.888,130.832,9.782,129.657"/>
<path fill="#35A8E0" d="M12.103,137.204c-0.19-0.438-0.19-0.551-0.19-0.607c0,0,0.041,0,0.041-0.008
	c0.729,0.641,3.279,5.887,3.53,6.607c-0.077-0.064-0.077-0.064-0.251-0.324l-2.122-3.732
	C12.629,138.297,12.325,137.657,12.103,137.204"/>
<path fill="#35A8E0" d="M30.487,44.281c6.749-5.887,11.474,0.464,10.77,7.429c-0.526,5.211-3.296,8.114-4.215,9.063
	c6.685-7.069,4.733-18.466-1.485-18.694c-2.405-0.107-4.219,1.49-5.102,2.218L30.487,44.281z"/>
<path fill="#35A8E0" d="M17.402,60.144c3.438-3.876,7.607-0.672,7.854,5.978c0.3,7.741-4.781,13.826-8.479,10.198
	c-0.732-0.741-1.093-1.514-1.465-2.324C13.321,68.296,15.35,62.466,17.402,60.144"/>
<path fill="#35A8E0" d="M8.487,75.81c1.729-2.947,4.243-1.7,5.389,2.656c1.68,6.401-0.838,13.871-4.045,11.927
	c-0.931-0.591-1.466-1.773-1.773-2.51C6.325,83.049,7.232,77.916,8.487,75.81"/>
<path fill="#35A8E0" d="M3.608,90.094c0.619-1.951,1.794-2.041,2.806-0.138c2.3,4.122,2.113,13.336-0.283,12.948
	c-0.883-0.138-1.51-1.62-1.785-2.243C2.844,96.523,3.014,92.005,3.608,90.094"/>
<path fill="#35A8E0" d="M2.058,103.69c0.081-1.297,0.438-1.75,0.964-1.158c1.806,1.967,3.34,11.668,1.789,11.521
	c-0.404-0.048-0.895-1.166-1.109-1.716C2.54,109.325,1.952,105.577,2.058,103.69"/>
<path fill="#35A8E0" d="M3.265,115.179c-0.211-1.126-0.113-1.239-0.057-1.287c0.736,0.048,3.129,8.688,2.931,9.603
	c0,0.025-0.032,0.025-0.064,0.025c-0.098-0.139-0.243-0.438-0.575-1.231C4.56,119.909,3.641,116.928,3.265,115.179"/>
<path fill="#35A8E0" d="M6.212,124.418c0.008,0.024,0.826,2.081,1.644,4.016l-1.685-4.113C6.18,124.337,6.212,124.385,6.212,124.418
	"/>
<path fill="#35A8E0" d="M13.103,40.261c2.47-3.122,4.798-2.417,5.19,1.579c0.713,6.934-4.762,16.816-7.762,14.071
	c-0.688-0.609-0.931-1.674-1.068-2.334C8.774,48.441,11.167,42.682,13.103,40.261"/>
<path fill="#35A8E0" d="M4.256,56.909c1.098-2.33,2.304-2.638,2.948-0.743c1.623,4.676-1.324,16.187-3.729,14.665
	c-0.587-0.381-0.806-1.45-0.935-2.089C1.888,64.383,3.118,59.197,4.256,56.909"/>
<path fill="#35A8E0" d="M-0.412,72.636c0.373-1.672,0.834-2.373,1.279-1.851c1.555,1.903,0.843,14.527-0.842,14.203
	c-0.389-0.085-0.595-1.207-0.729-1.733C-1.286,79.499-0.897,74.786-0.412,72.636"/>
<path fill="#35A8E0" d="M-1.639,88.11c-0.012-1.725,0.138-1.878,0.174-1.923c0.668,0.174,1.62,11.47,1.033,12.085
	c-0.086-0.105-0.138-0.17-0.365-1.267C-1.286,94.013-1.603,90.191-1.639,88.11"/>
<path fill="#35A8E0" d="M-0.339,100.499c0,0.041,0.708,4.073,1.434,7.279l-1.434-7.319V100.499z"/>
<path fill="#35A8E0" d="M5.159,40.423c1.053-2.512,1.377-2.512,1.481-2.512c1.045,1.045-3.149,15.053-4.526,15.253
	c-0.34,0.053-0.23-1.02-0.17-1.551C2.52,47.812,4.22,42.725,5.159,40.423"/>
<path fill="#35A8E0" d="M0.795,55.042c0.008-0.091,0.048-0.19,0.072-0.273c0.154,0.575-2.008,13.381-2.21,14.109
	c-0.017-0.089-0.032-0.162-0.017-0.235l0.438-3.793c0.49-2.939,1.077-6.86,1.717-9.763C0.795,55.042,0.774,55.042,0.795,55.042"/>
<path fill="#35A8E0" d="M111.878,147.811c8.255-7.352,21.927-1.328,21.296,6.956c-0.199,2.494-1.535,4-2.422,4.996
	c6.911-7.766-2.081-15.587-11-15.118c-4.566,0.243-6.915,2.292-7.902,3.166H111.878z"/>
<path fill="#35A8E0" d="M98.096,161.722c7.017-4.493,20.086,1.353,18.345,8.207c-1.045,4.264-8.939,7.098-16.696,2.611
	C93.565,168.29,95.088,163.65,98.096,161.722"/>
<path fill="#35A8E0" d="M85.545,172.022c5.932-2.85,17.413,2.624,15.928,7.612c-0.887,3.028-7.688,4.47-14.397,0.502
	C81.792,176.557,82.982,173.221,85.545,172.022"/>
<path fill="#35A8E0" d="M74.934,178.654c5.053-1.538,15.356,3.943,13.292,7.069c-1.251,1.87-6.839,1.7-11.928-1.32
	C71.945,181.463,72.864,179.286,74.934,178.654"/>
<path fill="#35A8E0" d="M65.808,182.257c4.203-0.396,12.567,4.268,10.786,6.008c-1.004,0.996-5.547,0.146-9.668-2.332
	c-3.612-2.384-2.567-3.425-1.498-3.635C65.517,182.282,65.694,182.257,65.808,182.257"/>
<path fill="#35A8E0" d="M58.755,183.148c3.175,0.478,9.385,4.032,8.511,4.834c-0.519,0.486-4.162-0.745-7.652-2.874
	c-2.547-1.668-1.959-1.96-1.619-2.009C58.156,183.076,58.439,183.076,58.755,183.148"/>
<path fill="#35A8E0" d="M53.298,181.925c2.494,1.223,6.21,3.409,6.47,3.871c-0.073,0.023-0.26,0.129-2.83-1.394l-1.802-1.109
	l-2.121-1.312c-0.309-0.243-0.405-0.291-0.494-0.356C52.577,181.578,52.589,181.578,53.298,181.925"/>
<path fill="#35A8E0" d="M107.343,185.108c5.98-2.405,16.271,0.356,15.045,4.089c-0.923,2.785-8.681,4.211-14.713,1.822
	C102.894,188.768,104.594,186.208,107.343,185.108"/>
<path fill="#35A8E0" d="M94.95,190.557c5.166-1.061,14.049,1.692,12.83,3.919c-0.911,1.692-7.696,1.887-12.785-0.146
	c-3.685-1.725-2.426-3.013-1.073-3.519C94.205,190.703,94.622,190.597,94.95,190.557"/>
<path fill="#35A8E0" d="M83.577,192.744c4.563,0.04,11.754,2.542,10.511,3.619c-0.875,0.785-6.449,0.057-10.741-1.708
	c-2.275-1.037-2.064-1.522-1.494-1.766C82.209,192.784,82.796,192.703,83.577,192.744"/>
<path fill="#35A8E0" d="M74.079,192.08c3.441,0.85,8.434,2.615,8.47,3.174c-0.441,0.405-5.36-1.149-8.927-2.664
	c-0.947-0.453-1.292-0.647-1.353-0.753C72.358,191.78,72.488,191.707,74.079,192.08"/>
<path fill="#35A8E0" d="M67.152,189.82c2.057,0.964,5.178,2.316,5.23,2.316l-5.474-2.389
	C66.978,189.755,67.063,189.796,67.152,189.82"/>
<path fill="#35A8E0" d="M157.757,170.403c6.826-5.943,17.559-6.485,17.158-0.834c-0.158,2.098-1.858,3.928-2.632,4.794l-0.036,0.016
	h-0.017c5.045-5.433,2.308-8.898-3.304-8.64c-1.522,0.098-6.895,0.696-11.943,5.385l0.024-0.017
	C157.227,170.905,157.534,170.622,157.757,170.403"/>
<path fill="#35A8E0" d="M142.425,184.29c6.583-3.943,16.566-3.862,15.664,0.162c-0.713,3.393-9.567,7.312-16.215,6.179
	C137.027,189.399,139.278,186.168,142.425,184.29"/>
<path fill="#35A8E0" d="M127.514,193.157c6.012-2.162,14.943-1.645,13.83,0.834c-0.911,2.097-9.158,4.129-14.806,3.109
	c-4.195-1.013-1.394-2.802-0.802-3.158C126.189,193.707,126.894,193.375,127.514,193.157"/>
<path fill="#35A8E0" d="M113.428,197.804c5.535-0.858,13.252,0.017,11.973,1.353c-1.045,1.085-8.341,1.692-13.268,0.736
	c-1.79-0.429-2.26-0.891-1.332-1.385C111.088,198.355,111.784,198.072,113.428,197.804"/>
<path fill="#35A8E0" d="M99.967,199.083c4.271,0.194,10.053,1.021,10.109,1.538c-0.596,0.486-7.543-0.202-11.677-1.068
	c-0.821-0.187-1.093-0.251-1.279-0.389c0,0,0.017-0.024,0.017-0.057C97.274,199.083,97.654,198.93,99.967,199.083"/>
<path fill="#35A8E0" d="M88.226,197.48c3.117,0.802,8.036,1.798,8.093,1.798l-2.708-0.534l-6.114-1.458
	C87.724,197.334,88.003,197.416,88.226,197.48"/>
<path fill="#35A8E0" d="M145.34,196.168c5.627-2.008,12.798-3.304,12.396-2.227c-0.421,1.085-9.453,4-14.77,4.453
	c-0.599,0.057-1.854,0.113-1.433-0.421C141.846,197.578,143.287,196.873,145.34,196.168"/>
<path fill="#35A8E0" d="M129.761,200.428c4.607-0.664,10.267-1.288,11.024-1.158c-0.062,0.049-0.065,0.097-1.644,0.389
	c-3.733,0.494-8.745,1.174-12.519,1.457c-0.498,0.041-0.563,0.041-0.717,0.017C126.04,201.068,126.218,200.97,129.761,200.428"/>
<path fill="#35A8E0" d="M90.813,131.018c8.089-7.441,21.458,0.518,20.858,9.684c-0.485,7.523-10.389,11.296-18.992,4.891
	C86.213,139.86,88.003,133.739,90.813,131.018"/>
<path fill="#35A8E0" d="M108.226,114.944c6.919-5.797,18.445-0.08,17.862,8.908c-0.47,7.206-9.429,11.389-17.146,5.676
	C102.894,124.102,104.869,117.73,108.226,114.944"/>
<path fill="#35A8E0" d="M70.399,110.426c7.425-6.777,19,1.102,18.781,10.251c-0.215,8.292-10.028,12.519-17.947,5.028
	C65.605,119.358,67.658,113.09,70.399,110.426"/>
<path fill="#35A8E0" d="M39.601,66.104c6.385-5.828,13.973,0.53,13.628,8.986c-0.372,9.288-9,14.082-14.4,7.992
	c-0.401-0.461-0.822-1.101-1.154-1.627C34.188,74.838,36.9,68.644,39.601,66.104"/>
<path fill="#35A8E0" d="M30.431,44.326c6.721-5.828,11.466,0.519,10.77,7.434c-0.526,5.19-3.279,8.093-4.166,9.042l-0.049,0.041
	c-4.153,3.624-8.028,2.974-10.174-1.658c-1.688-4.974-0.292-10.8,3.607-14.842L30.431,44.326z"/>
<path fill="#35A8E0" d="M48.759,30.577c5.802-3.324,11.162,1.393,9.397,8.32c-2.017,7.82-11.045,11.253-14.211,5.353
	c-0.138-0.19-0.251-0.488-0.336-0.717C41.638,37.741,45.447,32.459,48.759,30.577"/>
<path fill="#35A8E0" d="M111.788,147.86c8.284-7.264,21.944-1.255,21.324,6.964c-0.174,2.47-1.506,3.968-2.389,4.939l-0.053,0.04
	c-4.514,4.057-10.866,4.519-16.547,1.271C108.78,157.375,107.882,152.192,111.788,147.86"/>
<path fill="#35A8E0" d="M156.943,171.165L156.943,171.165l0.036-0.041c7.421-6.891,18.231-6.898,17.891-1.466
	c-0.129,2.049-1.821,3.854-2.636,4.721l-0.02,0.041c-0.009,0-0.009,0.016-0.009,0.016c-4.308,4.009-9.878,6.065-14.547,5.32
	C152.312,178.314,154.287,173.812,156.943,171.165"/>
<path fill="#004D89" d="M157.076,37.816c0-29.298-12.004-41.289-41.3-41.272c29.296-0.017,41.3-11.986,41.3-41.309
	c0,29.322,11.988,41.292,41.284,41.309C169.064-3.473,157.076,8.518,157.076,37.816"/>
<path fill="#004D89" d="M100.554,56.638c0-14.352-5.862-20.199-20.231-20.199c14.369,0,20.231-5.875,20.231-20.215
	c0,14.34,5.858,20.215,20.211,20.215C106.412,36.439,100.554,42.286,100.554,56.638"/>
<path fill="#004D89" d="M174.49,111.075c0-10.948-4.474-15.402-15.426-15.402c10.952,0,15.426-4.478,15.426-15.425
	c0,10.948,4.465,15.425,15.421,15.425C178.955,95.673,174.49,100.126,174.49,111.075"/>
</svg>
