<?xml version="1.0" encoding="utf-8"?>
<!-- Generator: Adobe Illustrator 12.0.0, SVG Export Plug-In . SVG Version: 6.00 Build 51448)  -->
<!DOCTYPE svg PUBLIC "-//W3C//DTD SVG 1.1//EN" "http://www.w3.org/Graphics/SVG/1.1/DTD/svg11.dtd" [
	<!ENTITY ns_svg "http://www.w3.org/2000/svg">
	<!ENTITY ns_xlink "http://www.w3.org/1999/xlink">
]>
<svg  version="1.1" id="Linkedin" xmlns="&ns_svg;" xmlns:xlink="&ns_xlink;" width="94.527" height="94.527"
	 viewBox="15.912 15.935 94.527 94.527" overflow="visible" enable-background="new 15.912 15.935 94.527 94.527"
	 xml:space="preserve">
<circle fill="#0076B2" cx="63.176" cy="63.198" r="47.264"/>
<g id="linkedin-linkedin">
	<path fill="#FFFFFF" d="M37.501,54.295h11.014v35.402H37.501V54.295z M43.011,36.698c3.519,0,6.376,2.858,6.376,6.379
		c0,3.522-2.857,6.382-6.376,6.382c-3.534,0-6.383-2.859-6.383-6.382C36.627,39.557,39.477,36.698,43.011,36.698"/>
	<path fill="#FFFFFF" d="M55.417,54.295h10.546v4.84h0.151c1.467-2.784,5.058-5.718,10.41-5.718c11.142,0,13.199,7.33,13.199,16.863
		v19.417H78.722V72.481c0-4.105-0.07-9.385-5.717-9.385c-5.725,0-6.599,4.474-6.599,9.093v17.51H55.417V54.295L55.417,54.295z"/>
</g>
<rect x="35.544" y="35.617" fill="none" width="56" height="55.898"/>
</svg>
