<?xml version="1.0" encoding="utf-8"?>
<!-- Generator: Adobe Illustrator 12.0.0, SVG Export Plug-In . SVG Version: 6.00 Build 51448)  -->
<!DOCTYPE svg PUBLIC "-//W3C//DTD SVG 1.1//EN" "http://www.w3.org/Graphics/SVG/1.1/DTD/svg11.dtd" [
	<!ENTITY ns_svg "http://www.w3.org/2000/svg">
	<!ENTITY ns_xlink "http://www.w3.org/1999/xlink">
]>
<svg  version="1.1" id="Calque_1" xmlns="&ns_svg;" xmlns:xlink="&ns_xlink;" width="94.527" height="94.527"
	 viewBox="-32.921 -28.36 94.527 94.527" overflow="visible" enable-background="new -32.921 -28.36 94.527 94.527"
	 xml:space="preserve">
<circle fill="#35A8E0" cx="14.342" cy="18.904" r="47.263"/>
<g>
	<polygon fill="#FEFEFE" points="31.24,-8.657 -1.433,3.418 35.704,3.418 	"/>
	<polygon fill="#FEFEFE" points="-13.227,30.555 -13.227,7.775 -20.633,10.514 	"/>
	<path fill="#FEFEFE" d="M-10.947,5.725v38.739h55.306V5.725H-10.947z M26.751,16.545h1.964v1.759h1.657V15.02h-2.315
		c-0.759,0-1.305-0.424-1.305-0.858v-3.854c0-0.509,0.525-0.873,1.305-0.873h2.97c0.742,0,1.312,0.364,1.312,0.858v2.138h-1.965
		v-1.687h-1.659v2.966h2.311c0.745,0,1.313,0.408,1.313,0.873v4.175c0,0.466-0.592,0.859-1.313,0.859h-2.967
		c-0.698,0-1.306-0.395-1.306-0.859L26.751,16.545L26.751,16.545z M1.076,9.434h2.397l1.877,5.062V9.434h1.963v10.184H5.002
		L3.04,14.146v5.472H1.076V9.434z M12.749,38.393H-6.928v-1.265h19.676L12.749,38.393L12.749,38.393z M12.749,34.252H-6.928v-1.266
		h19.676L12.749,34.252L12.749,34.252z M12.749,30.109H-6.928v-1.263h19.676L12.749,30.109L12.749,30.109z M12.749,25.972H-6.928
		v-1.27h19.676L12.749,25.972L12.749,25.972z M14.121,19.617H9.06V9.434h4.906v1.311h-2.943v2.806h2.072v1.311h-2.072v3.444h3.097
		L14.121,19.617L14.121,19.617z M19.49,19.617h-2.967L14.884,9.434h2.026l1.092,7.14l1.311-7.14h2.023l1.313,7.111l1.089-7.111
		h2.029l-1.632,10.184h-2.972l-0.827-4.654L19.49,19.617z M40.338,38.393H20.664v-1.265h19.675L40.338,38.393L40.338,38.393z
		 M40.338,34.252H20.664v-1.266h19.675L40.338,34.252L40.338,34.252z M40.338,30.109H20.664v-1.263h19.675L40.338,30.109
		L40.338,30.109z M40.338,25.972H20.664v-1.27h19.675L40.338,25.972L40.338,25.972z"/>
</g>
<rect x="-7.99" y="0.65" fill="none" width="44.664" height="36.506"/>
</svg>
