<?xml version="1.0" encoding="utf-8"?>
<!-- Generator: Adobe Illustrator 12.0.0, SVG Export Plug-In . SVG Version: 6.00 Build 51448)  -->
<!DOCTYPE svg PUBLIC "-//W3C//DTD SVG 1.1//EN" "http://www.w3.org/Graphics/SVG/1.1/DTD/svg11.dtd" [
	<!ENTITY ns_svg "http://www.w3.org/2000/svg">
	<!ENTITY ns_xlink "http://www.w3.org/1999/xlink">
]>
<svg  version="1.1" id="Calque_1" xmlns="&ns_svg;" xmlns:xlink="&ns_xlink;" width="25.001" height="23.234"
	 viewBox="0 0 25.001 23.234" overflow="visible" enable-background="new 0 0 25.001 23.234" xml:space="preserve">
<path fill-rule="evenodd" clip-rule="evenodd" fill="#BDC3C7" d="M9.454,14.006v8.197c0,0.568-0.462,1.031-1.03,1.031H1.03
	c-0.567,0-1.03-0.463-1.03-1.031v-7.115c0-4.358,0.52-7.526,1.576-9.471C2.83,3.26,4.724,1.434,7.283,0.115
	c0.48-0.247,1.067-0.084,1.35,0.376L9.66,2.163c0.153,0.249,0.193,0.521,0.118,0.803C9.703,3.25,9.533,3.465,9.277,3.606
	C7.96,4.326,6.956,5.278,6.269,6.489c-0.73,1.288-1.187,3.083-1.363,5.378c-0.023,0.295,0.069,0.561,0.271,0.777
	c0.202,0.219,0.458,0.332,0.755,0.332h2.491C8.991,12.977,9.454,13.438,9.454,14.006L9.454,14.006z M24.641,14.006v8.197
	c0,0.568-0.463,1.031-1.031,1.031h-7.393c-0.568,0-1.029-0.463-1.029-1.031v-7.115c0-4.358,0.518-7.526,1.574-9.471
	c1.254-2.357,3.148-4.183,5.707-5.502c0.48-0.247,1.066-0.084,1.35,0.376l1.027,1.672C25,2.412,25.039,2.684,24.965,2.966
	c-0.076,0.283-0.244,0.499-0.502,0.64c-1.316,0.72-2.32,1.672-3.008,2.883c-0.73,1.288-1.188,3.083-1.363,5.378
	c-0.023,0.295,0.068,0.561,0.271,0.777c0.203,0.219,0.457,0.332,0.756,0.332h2.49C24.178,12.977,24.641,13.438,24.641,14.006z"/>
</svg>
