<?xml version="1.0" encoding="utf-8"?>
<!-- Generator: Adobe Illustrator 12.0.0, SVG Export Plug-In . SVG Version: 6.00 Build 51448)  -->
<!DOCTYPE svg PUBLIC "-//W3C//DTD SVG 1.1//EN" "http://www.w3.org/Graphics/SVG/1.1/DTD/svg11.dtd" [
	<!ENTITY ns_svg "http://www.w3.org/2000/svg">
	<!ENTITY ns_xlink "http://www.w3.org/1999/xlink">
]>
<svg  version="1.1" id="Twitter" xmlns="&ns_svg;" xmlns:xlink="&ns_xlink;" width="94.528" height="94.527"
	 viewBox="15.057 15.947 94.528 94.527" overflow="visible" enable-background="new 15.057 15.947 94.528 94.527"
	 xml:space="preserve">
<rect x="34.32" y="40.456" fill="none" width="56" height="45.509"/>
<circle fill="#55ACEE" cx="62.321" cy="63.21" r="47.264"/>
<path id="twitter-twitter" fill="#FEFEFE" d="M90.322,45.842c-2.061,0.914-4.273,1.531-6.6,1.81
	c2.371-1.422,4.195-3.674,5.053-6.356c-2.221,1.316-4.68,2.273-7.297,2.788c-2.096-2.232-5.081-3.628-8.387-3.628
	c-6.346,0-11.488,5.145-11.488,11.489c0,0.9,0.102,1.777,0.297,2.618c-9.548-0.479-18.014-5.054-23.68-12.004
	c-0.989,1.696-1.556,3.67-1.556,5.775c0,3.986,2.028,7.503,5.111,9.563c-1.883-0.059-3.654-0.577-5.204-1.438
	c-0.001,0.049-0.001,0.097-0.001,0.146c0,5.565,3.96,10.209,9.217,11.267c-0.965,0.262-1.979,0.401-3.027,0.401
	c-0.74,0-1.461-0.071-2.162-0.206c1.462,4.563,5.706,7.887,10.733,7.979c-3.933,3.082-8.887,4.92-14.27,4.92
	c-0.927,0-1.841-0.055-2.74-0.16c5.085,3.26,11.124,5.16,17.613,5.16c21.133,0,32.688-17.506,32.688-32.688
	c0-0.499-0.012-0.993-0.033-1.485C86.834,50.169,88.783,48.147,90.322,45.842z"/>
</svg>
